<mxfile host="app.diagrams.net" modified="2024-07-10T14:58:02.753Z" agent="Mozilla/5.0 (Windows NT 10.0; Win64; x64) AppleWebKit/537.36 (KHTML, like Gecko) Chrome/126.0.0.0 Safari/537.36 Edg/126.0.0.0" etag="bfIMOAByGGw4-WLqQAcD" version="24.6.4" type="device">
  <diagram name="Page-1" id="oqYJL9JDsDoigpfDJwAE">
    <mxGraphModel dx="1195" dy="711" grid="1" gridSize="10" guides="1" tooltips="1" connect="1" arrows="1" fold="1" page="1" pageScale="1" pageWidth="850" pageHeight="1100" math="0" shadow="0">
      <root>
        <mxCell id="0" />
        <mxCell id="1" parent="0" />
        <mxCell id="BMYc5PoSYnXwashEt7rn-5" value="&lt;font style=&quot;font-size: 20px;&quot;&gt; EV charging interface&lt;/font&gt;" style="text;html=1;align=center;verticalAlign=middle;resizable=0;points=[];autosize=1;strokeColor=none;fillColor=none;" vertex="1" parent="1">
          <mxGeometry x="465" y="235" width="210" height="40" as="geometry" />
        </mxCell>
        <mxCell id="BMYc5PoSYnXwashEt7rn-9" value="" style="edgeStyle=orthogonalEdgeStyle;rounded=0;orthogonalLoop=1;jettySize=auto;html=1;" edge="1" parent="1" source="BMYc5PoSYnXwashEt7rn-6" target="BMYc5PoSYnXwashEt7rn-8">
          <mxGeometry relative="1" as="geometry">
            <Array as="points">
              <mxPoint x="390" y="430" />
              <mxPoint x="170" y="430" />
            </Array>
          </mxGeometry>
        </mxCell>
        <mxCell id="BMYc5PoSYnXwashEt7rn-12" value="" style="edgeStyle=orthogonalEdgeStyle;rounded=0;orthogonalLoop=1;jettySize=auto;html=1;" edge="1" parent="1" source="BMYc5PoSYnXwashEt7rn-6" target="BMYc5PoSYnXwashEt7rn-11">
          <mxGeometry relative="1" as="geometry" />
        </mxCell>
        <mxCell id="BMYc5PoSYnXwashEt7rn-14" value="" style="edgeStyle=orthogonalEdgeStyle;rounded=0;orthogonalLoop=1;jettySize=auto;html=1;" edge="1" parent="1" source="BMYc5PoSYnXwashEt7rn-6" target="BMYc5PoSYnXwashEt7rn-13">
          <mxGeometry relative="1" as="geometry">
            <Array as="points">
              <mxPoint x="390" y="430" />
              <mxPoint x="610" y="430" />
            </Array>
          </mxGeometry>
        </mxCell>
        <mxCell id="BMYc5PoSYnXwashEt7rn-53" value="" style="edgeStyle=orthogonalEdgeStyle;rounded=0;orthogonalLoop=1;jettySize=auto;html=1;exitX=1;exitY=0.5;exitDx=0;exitDy=0;" edge="1" parent="1" source="BMYc5PoSYnXwashEt7rn-6" target="BMYc5PoSYnXwashEt7rn-52">
          <mxGeometry relative="1" as="geometry">
            <mxPoint x="490" y="380" as="sourcePoint" />
            <Array as="points">
              <mxPoint x="390" y="380" />
              <mxPoint x="390" y="430" />
              <mxPoint x="890" y="430" />
            </Array>
          </mxGeometry>
        </mxCell>
        <mxCell id="BMYc5PoSYnXwashEt7rn-55" value="" style="edgeStyle=orthogonalEdgeStyle;rounded=0;orthogonalLoop=1;jettySize=auto;html=1;" edge="1" parent="1" source="BMYc5PoSYnXwashEt7rn-6" target="BMYc5PoSYnXwashEt7rn-54">
          <mxGeometry relative="1" as="geometry">
            <Array as="points">
              <mxPoint x="390" y="430" />
              <mxPoint x="1060" y="430" />
            </Array>
          </mxGeometry>
        </mxCell>
        <mxCell id="BMYc5PoSYnXwashEt7rn-6" value="0.Attractor" style="rounded=1;whiteSpace=wrap;html=1;fillColor=#dae8fc;strokeColor=#6c8ebf;" vertex="1" parent="1">
          <mxGeometry x="330" y="350" width="120" height="60" as="geometry" />
        </mxCell>
        <mxCell id="BMYc5PoSYnXwashEt7rn-22" style="edgeStyle=orthogonalEdgeStyle;rounded=0;orthogonalLoop=1;jettySize=auto;html=1;entryX=0.5;entryY=0;entryDx=0;entryDy=0;" edge="1" parent="1" source="BMYc5PoSYnXwashEt7rn-8" target="BMYc5PoSYnXwashEt7rn-15">
          <mxGeometry relative="1" as="geometry" />
        </mxCell>
        <mxCell id="BMYc5PoSYnXwashEt7rn-23" style="edgeStyle=orthogonalEdgeStyle;rounded=0;orthogonalLoop=1;jettySize=auto;html=1;" edge="1" parent="1" source="BMYc5PoSYnXwashEt7rn-8" target="BMYc5PoSYnXwashEt7rn-20">
          <mxGeometry relative="1" as="geometry" />
        </mxCell>
        <mxCell id="BMYc5PoSYnXwashEt7rn-8" value="1.Authentication" style="whiteSpace=wrap;html=1;rounded=1;fillColor=#ffe6cc;strokeColor=#d79b00;" vertex="1" parent="1">
          <mxGeometry x="110" y="470" width="120" height="60" as="geometry" />
        </mxCell>
        <mxCell id="BMYc5PoSYnXwashEt7rn-39" value="" style="edgeStyle=orthogonalEdgeStyle;rounded=0;orthogonalLoop=1;jettySize=auto;html=1;" edge="1" parent="1" source="BMYc5PoSYnXwashEt7rn-11" target="BMYc5PoSYnXwashEt7rn-38">
          <mxGeometry relative="1" as="geometry" />
        </mxCell>
        <mxCell id="BMYc5PoSYnXwashEt7rn-11" value="2.Charging details" style="whiteSpace=wrap;html=1;rounded=1;fillColor=#ffe6cc;strokeColor=#d79b00;" vertex="1" parent="1">
          <mxGeometry x="330" y="470" width="120" height="60" as="geometry" />
        </mxCell>
        <mxCell id="BMYc5PoSYnXwashEt7rn-47" value="" style="edgeStyle=orthogonalEdgeStyle;rounded=0;orthogonalLoop=1;jettySize=auto;html=1;" edge="1" parent="1" source="BMYc5PoSYnXwashEt7rn-13" target="BMYc5PoSYnXwashEt7rn-46">
          <mxGeometry relative="1" as="geometry" />
        </mxCell>
        <mxCell id="BMYc5PoSYnXwashEt7rn-51" value="" style="edgeStyle=orthogonalEdgeStyle;rounded=0;orthogonalLoop=1;jettySize=auto;html=1;" edge="1" parent="1" source="BMYc5PoSYnXwashEt7rn-13" target="BMYc5PoSYnXwashEt7rn-50">
          <mxGeometry relative="1" as="geometry">
            <Array as="points">
              <mxPoint x="610" y="570" />
              <mxPoint x="750" y="570" />
            </Array>
          </mxGeometry>
        </mxCell>
        <mxCell id="BMYc5PoSYnXwashEt7rn-13" value="3.Payment" style="whiteSpace=wrap;html=1;rounded=1;fillColor=#ffe6cc;strokeColor=#d79b00;" vertex="1" parent="1">
          <mxGeometry x="550" y="470" width="120" height="60" as="geometry" />
        </mxCell>
        <mxCell id="BMYc5PoSYnXwashEt7rn-26" style="edgeStyle=orthogonalEdgeStyle;rounded=0;orthogonalLoop=1;jettySize=auto;html=1;entryX=0.5;entryY=0;entryDx=0;entryDy=0;" edge="1" parent="1" source="BMYc5PoSYnXwashEt7rn-15" target="BMYc5PoSYnXwashEt7rn-24">
          <mxGeometry relative="1" as="geometry" />
        </mxCell>
        <mxCell id="BMYc5PoSYnXwashEt7rn-28" style="edgeStyle=orthogonalEdgeStyle;rounded=0;orthogonalLoop=1;jettySize=auto;html=1;entryX=0;entryY=0.5;entryDx=0;entryDy=0;" edge="1" parent="1" source="BMYc5PoSYnXwashEt7rn-15" target="BMYc5PoSYnXwashEt7rn-27">
          <mxGeometry relative="1" as="geometry" />
        </mxCell>
        <mxCell id="BMYc5PoSYnXwashEt7rn-15" value="1.1 Entering account&amp;nbsp;&lt;div&gt;number&lt;/div&gt;" style="whiteSpace=wrap;html=1;rounded=1;fillColor=#f8cecc;strokeColor=#b85450;" vertex="1" parent="1">
          <mxGeometry x="40" y="670" width="120" height="60" as="geometry" />
        </mxCell>
        <mxCell id="BMYc5PoSYnXwashEt7rn-25" style="edgeStyle=orthogonalEdgeStyle;rounded=0;orthogonalLoop=1;jettySize=auto;html=1;entryX=0.5;entryY=0;entryDx=0;entryDy=0;" edge="1" parent="1" source="BMYc5PoSYnXwashEt7rn-20" target="BMYc5PoSYnXwashEt7rn-24">
          <mxGeometry relative="1" as="geometry" />
        </mxCell>
        <mxCell id="BMYc5PoSYnXwashEt7rn-30" style="edgeStyle=orthogonalEdgeStyle;rounded=0;orthogonalLoop=1;jettySize=auto;html=1;entryX=1;entryY=0.5;entryDx=0;entryDy=0;" edge="1" parent="1" source="BMYc5PoSYnXwashEt7rn-20" target="BMYc5PoSYnXwashEt7rn-27">
          <mxGeometry relative="1" as="geometry" />
        </mxCell>
        <mxCell id="BMYc5PoSYnXwashEt7rn-20" value="1.2 Scanning QR&amp;nbsp;" style="whiteSpace=wrap;html=1;rounded=1;fillColor=#f8cecc;strokeColor=#b85450;" vertex="1" parent="1">
          <mxGeometry x="180" y="670" width="120" height="60" as="geometry" />
        </mxCell>
        <mxCell id="BMYc5PoSYnXwashEt7rn-32" style="edgeStyle=orthogonalEdgeStyle;rounded=0;orthogonalLoop=1;jettySize=auto;html=1;entryX=0;entryY=0.5;entryDx=0;entryDy=0;" edge="1" parent="1" source="BMYc5PoSYnXwashEt7rn-24" target="BMYc5PoSYnXwashEt7rn-11">
          <mxGeometry relative="1" as="geometry">
            <Array as="points">
              <mxPoint x="320" y="810" />
              <mxPoint x="320" y="500" />
            </Array>
          </mxGeometry>
        </mxCell>
        <mxCell id="BMYc5PoSYnXwashEt7rn-35" value="" style="edgeStyle=orthogonalEdgeStyle;rounded=0;orthogonalLoop=1;jettySize=auto;html=1;" edge="1" parent="1" source="BMYc5PoSYnXwashEt7rn-24" target="BMYc5PoSYnXwashEt7rn-34">
          <mxGeometry relative="1" as="geometry" />
        </mxCell>
        <mxCell id="BMYc5PoSYnXwashEt7rn-24" value="1.1.1 Verify user identity" style="rounded=1;whiteSpace=wrap;html=1;fillColor=#e1d5e7;strokeColor=#9673a6;" vertex="1" parent="1">
          <mxGeometry x="110" y="800" width="120" height="60" as="geometry" />
        </mxCell>
        <mxCell id="BMYc5PoSYnXwashEt7rn-29" style="edgeStyle=orthogonalEdgeStyle;rounded=0;orthogonalLoop=1;jettySize=auto;html=1;" edge="1" parent="1" source="BMYc5PoSYnXwashEt7rn-27">
          <mxGeometry relative="1" as="geometry">
            <mxPoint x="100" y="730" as="targetPoint" />
          </mxGeometry>
        </mxCell>
        <mxCell id="BMYc5PoSYnXwashEt7rn-31" style="edgeStyle=orthogonalEdgeStyle;rounded=0;orthogonalLoop=1;jettySize=auto;html=1;" edge="1" parent="1" source="BMYc5PoSYnXwashEt7rn-27">
          <mxGeometry relative="1" as="geometry">
            <mxPoint x="240" y="730" as="targetPoint" />
          </mxGeometry>
        </mxCell>
        <mxCell id="BMYc5PoSYnXwashEt7rn-37" style="edgeStyle=orthogonalEdgeStyle;rounded=0;orthogonalLoop=1;jettySize=auto;html=1;entryX=0.5;entryY=1;entryDx=0;entryDy=0;" edge="1" parent="1" source="BMYc5PoSYnXwashEt7rn-27" target="BMYc5PoSYnXwashEt7rn-34">
          <mxGeometry relative="1" as="geometry" />
        </mxCell>
        <mxCell id="BMYc5PoSYnXwashEt7rn-27" value="Error handling" style="rounded=1;whiteSpace=wrap;html=1;fillColor=#f5f5f5;fontColor=#333333;strokeColor=#666666;" vertex="1" parent="1">
          <mxGeometry x="110" y="1020" width="120" height="60" as="geometry" />
        </mxCell>
        <mxCell id="BMYc5PoSYnXwashEt7rn-36" style="edgeStyle=orthogonalEdgeStyle;rounded=0;orthogonalLoop=1;jettySize=auto;html=1;" edge="1" parent="1" source="BMYc5PoSYnXwashEt7rn-34" target="BMYc5PoSYnXwashEt7rn-27">
          <mxGeometry relative="1" as="geometry" />
        </mxCell>
        <mxCell id="BMYc5PoSYnXwashEt7rn-34" value="1.1.2 Entering Pin Number" style="whiteSpace=wrap;html=1;rounded=1;fillColor=#d5e8d4;strokeColor=#82b366;" vertex="1" parent="1">
          <mxGeometry x="110" y="920" width="120" height="60" as="geometry" />
        </mxCell>
        <mxCell id="BMYc5PoSYnXwashEt7rn-41" value="" style="edgeStyle=orthogonalEdgeStyle;rounded=0;orthogonalLoop=1;jettySize=auto;html=1;" edge="1" parent="1" source="BMYc5PoSYnXwashEt7rn-38" target="BMYc5PoSYnXwashEt7rn-40">
          <mxGeometry relative="1" as="geometry" />
        </mxCell>
        <mxCell id="BMYc5PoSYnXwashEt7rn-38" value="2.1 Vehicle Type" style="whiteSpace=wrap;html=1;rounded=1;fillColor=#f8cecc;strokeColor=#b85450;" vertex="1" parent="1">
          <mxGeometry x="330" y="610" width="120" height="60" as="geometry" />
        </mxCell>
        <mxCell id="BMYc5PoSYnXwashEt7rn-43" value="" style="edgeStyle=orthogonalEdgeStyle;rounded=0;orthogonalLoop=1;jettySize=auto;html=1;" edge="1" parent="1" source="BMYc5PoSYnXwashEt7rn-40" target="BMYc5PoSYnXwashEt7rn-42">
          <mxGeometry relative="1" as="geometry" />
        </mxCell>
        <mxCell id="BMYc5PoSYnXwashEt7rn-40" value="2.2 Choosing charging bay" style="whiteSpace=wrap;html=1;rounded=1;fillColor=#e1d5e7;strokeColor=#9673a6;" vertex="1" parent="1">
          <mxGeometry x="330" y="750" width="120" height="60" as="geometry" />
        </mxCell>
        <mxCell id="BMYc5PoSYnXwashEt7rn-44" style="edgeStyle=orthogonalEdgeStyle;rounded=0;orthogonalLoop=1;jettySize=auto;html=1;entryX=0;entryY=0.5;entryDx=0;entryDy=0;" edge="1" parent="1" source="BMYc5PoSYnXwashEt7rn-42" target="BMYc5PoSYnXwashEt7rn-13">
          <mxGeometry relative="1" as="geometry" />
        </mxCell>
        <mxCell id="BMYc5PoSYnXwashEt7rn-42" value="2.3 choosing charging duration" style="whiteSpace=wrap;html=1;rounded=1;fillColor=#d5e8d4;strokeColor=#82b366;" vertex="1" parent="1">
          <mxGeometry x="330" y="890" width="120" height="60" as="geometry" />
        </mxCell>
        <mxCell id="BMYc5PoSYnXwashEt7rn-59" value="" style="edgeStyle=orthogonalEdgeStyle;rounded=0;orthogonalLoop=1;jettySize=auto;html=1;" edge="1" parent="1" source="BMYc5PoSYnXwashEt7rn-46" target="BMYc5PoSYnXwashEt7rn-58">
          <mxGeometry relative="1" as="geometry" />
        </mxCell>
        <mxCell id="BMYc5PoSYnXwashEt7rn-64" style="edgeStyle=orthogonalEdgeStyle;rounded=0;orthogonalLoop=1;jettySize=auto;html=1;entryX=0.5;entryY=1;entryDx=0;entryDy=0;" edge="1" parent="1" source="BMYc5PoSYnXwashEt7rn-46" target="BMYc5PoSYnXwashEt7rn-52">
          <mxGeometry relative="1" as="geometry">
            <Array as="points">
              <mxPoint x="590" y="830" />
              <mxPoint x="890" y="830" />
            </Array>
          </mxGeometry>
        </mxCell>
        <mxCell id="BMYc5PoSYnXwashEt7rn-46" value="3.1 On account" style="whiteSpace=wrap;html=1;rounded=1;fillColor=#f8cecc;strokeColor=#b85450;" vertex="1" parent="1">
          <mxGeometry x="550" y="610" width="120" height="60" as="geometry" />
        </mxCell>
        <mxCell id="BMYc5PoSYnXwashEt7rn-60" style="edgeStyle=orthogonalEdgeStyle;rounded=0;orthogonalLoop=1;jettySize=auto;html=1;entryX=0.5;entryY=0;entryDx=0;entryDy=0;" edge="1" parent="1" source="BMYc5PoSYnXwashEt7rn-50" target="BMYc5PoSYnXwashEt7rn-58">
          <mxGeometry relative="1" as="geometry" />
        </mxCell>
        <mxCell id="BMYc5PoSYnXwashEt7rn-67" style="edgeStyle=orthogonalEdgeStyle;rounded=0;orthogonalLoop=1;jettySize=auto;html=1;" edge="1" parent="1" source="BMYc5PoSYnXwashEt7rn-50" target="BMYc5PoSYnXwashEt7rn-52">
          <mxGeometry relative="1" as="geometry" />
        </mxCell>
        <mxCell id="BMYc5PoSYnXwashEt7rn-50" value="3.2 contactless card&amp;nbsp;&lt;div&gt;transaction&lt;/div&gt;" style="whiteSpace=wrap;html=1;rounded=1;fillColor=#f8cecc;strokeColor=#b85450;" vertex="1" parent="1">
          <mxGeometry x="690" y="610" width="120" height="60" as="geometry" />
        </mxCell>
        <mxCell id="BMYc5PoSYnXwashEt7rn-68" style="edgeStyle=orthogonalEdgeStyle;rounded=0;orthogonalLoop=1;jettySize=auto;html=1;entryX=0;entryY=0.5;entryDx=0;entryDy=0;" edge="1" parent="1" source="BMYc5PoSYnXwashEt7rn-52" target="BMYc5PoSYnXwashEt7rn-54">
          <mxGeometry relative="1" as="geometry" />
        </mxCell>
        <mxCell id="BMYc5PoSYnXwashEt7rn-52" value="4.Start charging" style="whiteSpace=wrap;html=1;rounded=1;fillColor=#ffe6cc;strokeColor=#d79b00;" vertex="1" parent="1">
          <mxGeometry x="830" y="470" width="120" height="60" as="geometry" />
        </mxCell>
        <mxCell id="BMYc5PoSYnXwashEt7rn-57" value="" style="edgeStyle=orthogonalEdgeStyle;rounded=0;orthogonalLoop=1;jettySize=auto;html=1;" edge="1" parent="1" source="BMYc5PoSYnXwashEt7rn-54" target="BMYc5PoSYnXwashEt7rn-56">
          <mxGeometry relative="1" as="geometry" />
        </mxCell>
        <mxCell id="BMYc5PoSYnXwashEt7rn-54" value="5.Cancel charging" style="whiteSpace=wrap;html=1;rounded=1;fillColor=#ffe6cc;strokeColor=#d79b00;" vertex="1" parent="1">
          <mxGeometry x="1000" y="470" width="120" height="60" as="geometry" />
        </mxCell>
        <mxCell id="BMYc5PoSYnXwashEt7rn-56" value="5.1 Entering pin number" style="whiteSpace=wrap;html=1;rounded=1;fillColor=#f8cecc;strokeColor=#b85450;" vertex="1" parent="1">
          <mxGeometry x="1000" y="610" width="120" height="60" as="geometry" />
        </mxCell>
        <mxCell id="BMYc5PoSYnXwashEt7rn-61" style="edgeStyle=orthogonalEdgeStyle;rounded=0;orthogonalLoop=1;jettySize=auto;html=1;entryX=0.5;entryY=1;entryDx=0;entryDy=0;" edge="1" parent="1" source="BMYc5PoSYnXwashEt7rn-58" target="BMYc5PoSYnXwashEt7rn-46">
          <mxGeometry relative="1" as="geometry" />
        </mxCell>
        <mxCell id="BMYc5PoSYnXwashEt7rn-62" style="edgeStyle=orthogonalEdgeStyle;rounded=0;orthogonalLoop=1;jettySize=auto;html=1;entryX=0.5;entryY=1;entryDx=0;entryDy=0;" edge="1" parent="1" source="BMYc5PoSYnXwashEt7rn-58" target="BMYc5PoSYnXwashEt7rn-50">
          <mxGeometry relative="1" as="geometry" />
        </mxCell>
        <mxCell id="BMYc5PoSYnXwashEt7rn-58" value="Error handling" style="whiteSpace=wrap;html=1;rounded=1;fillColor=#f5f5f5;fontColor=#333333;strokeColor=#666666;" vertex="1" parent="1">
          <mxGeometry x="610" y="750" width="120" height="60" as="geometry" />
        </mxCell>
      </root>
    </mxGraphModel>
  </diagram>
</mxfile>
